<svg width="43" height="31" viewBox="0 0 43 31" fill="none" xmlns="http://www.w3.org/2000/svg">
<path d="M41.6105 30.6734H28.2412C27.5276 30.6734 27.0042 30.1378 27.0042 29.5127L27.0039 20.0483C27.0039 19.3788 27.5747 18.8877 28.2408 18.8877H41.6102C42.3237 18.8877 42.8471 19.4233 42.8471 20.0483V29.4681C42.8474 30.1376 42.2766 30.6732 41.6105 30.6732L41.6105 30.6734ZM29.4782 28.3073H40.3735L40.3738 21.2539H29.4785L29.4782 28.3073Z" fill="#AE8649"/>
<path d="M14.8231 30.6734H1.45373C0.740202 30.6734 0.216797 30.1378 0.216797 29.5127V20.0483C0.216797 19.3788 0.787627 18.8877 1.45373 18.8877H14.8231C15.5366 18.8877 16.06 19.4233 16.06 20.0483V29.4681C16.1078 30.1376 15.537 30.6732 14.8231 30.6732V30.6734ZM2.69075 28.3073H13.586L13.5864 21.2539H2.69108L2.69075 28.3073Z" fill="#AE8649"/>
<path d="M28.2398 30.6737H14.8229C14.1093 30.6737 13.5859 30.1381 13.5859 29.5131V20.0487C13.5859 19.3791 14.1568 18.888 14.8229 18.888L28.1922 18.8877C28.9057 18.8877 29.4291 19.4233 29.4291 20.0483V29.4681C29.4769 30.1379 28.9061 30.6735 28.24 30.6735L28.2398 30.6737ZM16.1075 28.3076H27.0028V21.2542H16.1075V28.3076Z" fill="#AE8649"/>
<path d="M21.5324 21.2537H8.16305C7.44952 21.2537 6.92611 20.7181 6.92611 20.0931L6.92578 10.6733C6.92578 10.0038 7.49661 9.5127 8.16272 9.5127H21.532C22.2456 9.5127 22.769 10.0483 22.769 10.6733V20.0931C22.769 20.7181 22.2456 21.254 21.532 21.254L21.5324 21.2537ZM9.40007 18.8873H20.2954L20.2957 11.8339H9.4004L9.40007 18.8873Z" fill="#AE8649"/>
<path d="M34.9012 21.2537H21.5319C20.8183 21.2537 20.2949 20.7181 20.2949 20.0931V10.6733C20.2949 10.0038 20.8658 9.5127 21.5319 9.5127H34.9012C35.6147 9.5127 36.1381 10.0483 36.1381 10.6733V20.0931C36.1859 20.7181 35.6151 21.254 34.9012 21.254V21.2537ZM22.7689 18.8873H33.6642L33.6645 11.8339H22.7692L22.7689 18.8873Z" fill="#AE8649"/>
<path d="M28.2398 11.8338H14.8229C14.1093 11.8338 13.5859 11.2982 13.5859 10.6732V1.25342C13.5859 0.583898 14.1568 0.0927734 14.8229 0.0927734H28.1922C28.9057 0.0927734 29.4291 0.628398 29.4291 1.25342V10.6732C29.4769 11.2982 28.9061 11.8341 28.24 11.8341L28.2398 11.8338ZM16.1075 9.4674H27.0028V2.41399H16.1075V9.4674Z" fill="#AE8649"/>
</svg>
