<svg width="25" height="24" viewBox="0 0 25 24" fill="none" xmlns="http://www.w3.org/2000/svg">
<path d="M12.077 0C5.42688 0 0.0351562 5.373 0.0351562 12C0.0351562 18.627 5.42688 24 12.077 24C18.7271 24 24.1188 18.627 24.1188 12C24.1188 5.373 18.7271 0 12.077 0ZM9.06652 18C5.74097 18 3.04561 15.314 3.04561 12C3.04561 8.686 5.74097 6 9.06652 6C10.632 6 12.0579 6.596 13.1276 7.573L11.6886 8.977C10.9852 8.369 10.07 8 9.06652 8C6.84982 8 5.05258 9.791 5.05258 12C5.05258 14.209 6.84982 16 9.06652 16C11.0544 16 12.7011 14.558 13.0202 12.667H9.06652V10.667H14.9299L14.963 10.8C15.0433 11.188 15.0874 11.589 15.0874 12C15.0874 15.314 12.3921 18 9.06652 18ZM20.1048 13V15H18.0979V13H16.0909V11H18.0979V9H20.1048V11H22.1118V13H20.1048Z" fill="#F1F1F2"/>
</svg>
