<svg width="43" height="40" viewBox="0 0 43 40" fill="none" xmlns="http://www.w3.org/2000/svg">
<path fill-rule="evenodd" clip-rule="evenodd" d="M23.0125 3.54067C22.0715 2.92254 20.8192 2.92254 19.8782 3.54067L4.57566 13.5917C3.84516 14.0715 3.41005 14.8555 3.41005 15.6924V33.4543C3.41005 34.8705 4.63356 36.0186 6.14283 36.0186H36.748C38.2573 36.0186 39.4808 34.8705 39.4808 33.4543V15.6924C39.4808 14.8555 39.0456 14.0715 38.3152 13.5917L23.0125 3.54067ZM17.9979 1.01968C20.0679 -0.339893 22.8229 -0.339893 24.893 1.01968L40.1955 11.0716C41.8029 12.1273 42.76 13.8522 42.76 15.6929V33.4548C42.76 36.5705 40.0685 39.096 36.748 39.096H6.14283C2.82232 39.096 0.130859 36.5705 0.130859 33.4548V15.6929C0.130859 13.8521 1.08791 12.1272 2.69528 11.0716L17.9979 1.01968Z" fill="#AE8649"/>
<path fill-rule="evenodd" clip-rule="evenodd" d="M28.0035 31.9153H14.8867V28.8384H28.0035V31.9153Z" fill="#AE8649"/>
</svg>
