<svg width="31" height="31" viewBox="0 0 31 31" fill="none" xmlns="http://www.w3.org/2000/svg">
<path d="M15.3779 0.541992C7.10659 0.541992 0.376953 7.27122 0.376953 15.542C0.376953 23.8128 7.10659 30.542 15.3779 30.542C23.6491 30.542 30.3788 23.8128 30.3788 15.542C30.3788 7.27122 23.6491 0.541992 15.3779 0.541992ZM11.5307 5.15738H19.2227C22.8287 5.15738 25.7631 8.09047 25.7631 11.6951V19.3866C25.7631 22.9924 22.8298 25.9266 19.225 25.9266H11.533C7.92699 25.9266 4.99262 22.9935 4.99262 19.3889V11.6973C4.99262 8.09157 7.92589 5.15738 11.5307 5.15738ZM11.5307 7.46507C9.19866 7.46507 7.30045 9.36426 7.30045 11.6973V19.3889C7.30045 21.7208 9.19976 23.6189 11.533 23.6189H19.225C21.5571 23.6189 23.4553 21.7197 23.4553 19.3866V11.6951C23.4553 9.36316 21.556 7.46507 19.2227 7.46507H11.5307ZM20.7643 9.38739C21.1889 9.38739 21.5328 9.73126 21.5328 10.1559C21.5328 10.5805 21.1889 10.9266 20.7643 10.9266C20.3397 10.9266 19.9935 10.5805 19.9935 10.1559C19.9935 9.73126 20.3397 9.38739 20.7643 9.38739ZM15.3779 9.77276C18.5592 9.77276 21.1474 12.3608 21.1474 15.542C21.1474 18.7231 18.5592 21.3112 15.3779 21.3112C12.1965 21.3112 9.60828 18.7231 9.60828 15.542C9.60828 12.3608 12.1965 9.77276 15.3779 9.77276ZM15.3779 12.0805C14.4597 12.0805 13.5792 12.4452 12.93 13.0943C12.2808 13.7435 11.9161 14.6239 11.9161 15.542C11.9161 16.46 12.2808 17.3405 12.93 17.9897C13.5792 18.6388 14.4597 19.0035 15.3779 19.0035C16.296 19.0035 17.1765 18.6388 17.8257 17.9897C18.4749 17.3405 18.8396 16.46 18.8396 15.542C18.8396 14.6239 18.4749 13.7435 17.8257 13.0943C17.1765 12.4452 16.296 12.0805 15.3779 12.0805Z" fill="#AE8649"/>
</svg>
