<svg width="31" height="31" viewBox="0 0 31 31" fill="none" xmlns="http://www.w3.org/2000/svg">
<path d="M15.0009 0.541992C6.71665 0.541992 0 7.25824 0 15.542C0 23.8257 6.71665 30.542 15.0009 30.542C23.2851 30.542 30.0018 23.8257 30.0018 15.542C30.0018 7.25824 23.2851 0.541992 15.0009 0.541992ZM9.37056 7.29574C10.4231 7.29574 11.1244 7.99699 11.1244 8.93199C11.1244 9.86699 10.4231 10.5682 9.2543 10.5682C8.20174 10.5695 7.50045 9.86699 7.50045 8.93199C7.50045 7.99699 8.20174 7.29574 9.37056 7.29574ZM11.2507 21.792H7.50045V11.792H11.2507V21.792ZM23.7514 21.792H20.2212V16.327C20.2212 14.8157 19.2799 14.467 18.9274 14.467C18.5749 14.467 17.3973 14.6995 17.3973 16.327C17.3973 16.5595 17.3973 21.792 17.3973 21.792H13.7508V11.792H17.3985V13.187C17.8686 12.3732 18.8099 11.792 20.575 11.792C22.3401 11.792 23.7514 13.187 23.7514 16.327V21.792Z" fill="#AE8649"/>
</svg>
