<svg width="40" height="41" viewBox="0 0 40 41" fill="none" xmlns="http://www.w3.org/2000/svg">
<path d="M40 20.6133C40 9.56935 31.0439 0.613281 20 0.613281C8.95607 0.613281 0 9.56935 0 20.6133C0 31.6572 8.95607 40.6133 20 40.6133C31.0439 40.6133 40 31.6572 40 20.6133Z" fill="#AE8649"/>
<path d="M10.9102 14.6458C10.9102 13.5317 11.2826 12.4015 12.0191 11.2553C12.7556 10.1092 13.8398 9.16336 15.2549 8.40993C16.6701 7.6565 18.3252 7.27979 20.2204 7.27979C21.9748 7.27979 23.5307 7.59238 24.8713 8.22558C26.2203 8.85077 27.2548 9.7084 27.9913 10.7905C28.7278 11.8725 29.092 13.0427 29.092 14.3091C29.092 15.311 28.8851 16.1847 28.463 16.9301C28.041 17.6835 27.5444 18.3328 26.9734 18.8778C26.3941 19.4229 25.3679 20.3446 23.87 21.6351C23.4562 21.9957 23.1252 22.3164 22.8769 22.5969C22.6286 22.8694 22.4466 23.1259 22.3224 23.3503C22.1983 23.5828 22.1072 23.8072 22.041 24.0396C21.9748 24.2721 21.8755 24.6728 21.7431 25.2499C21.5114 26.4682 20.7914 27.0854 19.5831 27.0854C18.9542 27.0854 18.4245 26.885 17.9942 26.4843C17.5639 26.0835 17.3487 25.4904 17.3487 24.7049C17.3487 23.719 17.5059 22.8614 17.8204 22.14C18.1349 21.4186 18.5569 20.7854 19.0783 20.2404C19.5997 19.6954 20.3031 19.0461 21.1886 18.2927C21.9666 17.6355 22.521 17.1385 22.8686 16.8019C23.2162 16.4652 23.5058 16.0965 23.7376 15.6797C23.9776 15.271 24.0934 14.8221 24.0934 14.3412C24.0934 13.4034 23.7293 12.6099 23.0093 11.9607C22.2893 11.3114 21.3542 10.9908 20.2204 10.9908C18.888 10.9908 17.9032 11.3195 17.2742 11.9687C16.6453 12.6179 16.1073 13.5798 15.677 14.8462C15.2632 16.1767 14.4853 16.8339 13.3349 16.8339C12.6563 16.8339 12.0853 16.6015 11.6136 16.1366C11.1502 15.6878 10.9102 15.1908 10.9102 14.6458ZM19.79 33.9464C19.0535 33.9464 18.408 33.714 17.8535 33.2491C17.299 32.7842 17.0259 32.135 17.0259 31.3014C17.0259 30.564 17.2908 29.9388 17.8287 29.4339C18.3583 28.9289 19.0204 28.6804 19.79 28.6804C20.5514 28.6804 21.1969 28.9369 21.7183 29.4339C22.2397 29.9388 22.4962 30.564 22.4962 31.3014C22.4962 32.127 22.2231 32.7682 21.6769 33.2411C21.1307 33.714 20.5017 33.9464 19.79 33.9464Z" fill="#272727"/>
</svg>
