<svg width="43" height="41" viewBox="0 0 43 41" fill="none" xmlns="http://www.w3.org/2000/svg">
<path d="M10.7099 6.30749C10.4477 6.30749 10.1851 6.24611 9.98843 6.06153C9.595 5.69236 9.595 5.13862 9.98843 4.769L11.8248 3.04592C12.2182 2.67675 12.8083 2.67675 13.2022 3.04592C13.5957 3.41508 13.5957 3.96882 13.2022 4.33845L11.4314 6.0001C11.2347 6.18468 10.972 6.30749 10.7099 6.30749Z" fill="#AE8649"/>
<path d="M33.3362 40.0923C33.0741 40.0923 32.8115 40.0309 32.6147 39.8463L0.478931 9.63088C0.282216 9.4463 0.216797 9.19991 0.216797 8.95394C0.216797 8.70797 0.348092 8.46157 0.478931 8.27699L9.00488 0.276874C9.39831 -0.0922913 9.98844 -0.0922913 10.3824 0.276874L42.5838 30.5538C42.7805 30.7384 42.8459 30.9848 42.8459 31.2308C42.8459 31.4767 42.7146 31.7231 42.5838 31.9077L34.0578 39.9078C33.8611 40.031 33.599 40.0924 33.3364 40.0924L33.3362 40.0923ZM2.57762 9.01531L33.4018 37.9384L40.4848 31.1694L9.66062 2.24629L2.57762 9.01531Z" fill="#AE8649"/>
<path d="M11.3661 9.93834C11.104 9.93834 10.8414 9.87695 10.6447 9.69237C10.2513 9.3232 10.2513 8.76947 10.6447 8.39984L14.0551 5.19973C14.4486 4.83056 15.0387 4.83056 15.4326 5.19973C15.826 5.56889 15.826 6.12263 15.4326 6.49226L12.0876 9.63061C11.8909 9.81519 11.6283 9.93834 11.3661 9.93834Z" fill="#AE8649"/>
<path d="M15.5634 10.8617C15.3013 10.8617 15.0387 10.8003 14.8419 10.6157C14.4485 10.2466 14.4485 9.69282 14.8419 9.32319L16.6783 7.60012C17.0717 7.23095 17.6618 7.23095 18.0558 7.60012C18.4492 7.96928 18.4492 8.52302 18.0558 8.89264L16.2194 10.6157C16.0881 10.8003 15.8255 10.8617 15.5634 10.8617Z" fill="#AE8649"/>
<path d="M16.2196 14.492C15.9575 14.492 15.6949 14.4307 15.4982 14.2461C15.1048 13.8769 15.1048 13.3232 15.4982 12.9536L18.9086 9.75344C19.3021 9.38427 19.8922 9.38427 20.2861 9.75344C20.6796 10.1226 20.6796 10.6763 20.2861 11.046L16.8757 14.2461C16.7444 14.3693 16.4822 14.492 16.2196 14.492Z" fill="#AE8649"/>
<path d="M20.4814 15.4154C20.2192 15.4154 19.9566 15.354 19.7599 15.1694C19.3665 14.8003 19.3665 14.2465 19.7599 13.8769L21.5962 12.1538C21.9897 11.7847 22.5798 11.7847 22.9737 12.1538C23.3672 12.523 23.3672 13.0767 22.9737 13.4464L21.1369 15.169C21.0061 15.3536 20.7435 15.4154 20.4814 15.4154Z" fill="#AE8649"/>
<path d="M21.1376 19.0458C20.8755 19.0458 20.6129 18.9844 20.4162 18.7998C20.0227 18.4306 20.0227 17.8769 20.4162 17.5073L23.8266 14.3071C24.22 13.938 24.8102 13.938 25.2041 14.3071C25.5975 14.6763 25.5975 15.23 25.2041 15.5997L21.7937 18.7998C21.5969 18.9844 21.4002 19.0458 21.1376 19.0458Z" fill="#AE8649"/>
<path d="M25.3349 20.0306C25.0727 20.0306 24.8101 19.9693 24.6134 19.7847C24.22 19.4155 24.22 18.8618 24.6134 18.4921L26.4498 16.7691C26.8432 16.3999 27.4333 16.3999 27.8272 16.7691C28.2207 17.1382 28.2207 17.692 27.8272 18.0616L25.9909 19.7847C25.8596 19.9074 25.5975 20.0306 25.3349 20.0306Z" fill="#AE8649"/>
<path d="M25.9911 23.6615C25.729 23.6615 25.4664 23.6001 25.2697 23.4155C24.8763 23.0463 24.8763 22.4926 25.2697 22.123L28.6801 18.9229C29.0736 18.5537 29.6637 18.5537 30.0576 18.9229C30.451 19.292 30.451 19.8458 30.0576 20.2154L26.6472 23.4155C26.5159 23.5383 26.2533 23.6615 25.9911 23.6615Z" fill="#AE8649"/>
<path d="M30.2548 24.5843C29.9927 24.5843 29.7301 24.523 29.5334 24.3384C29.1399 23.9692 29.1399 23.4155 29.5334 23.0459L31.3697 21.3228C31.7631 20.9536 32.3532 20.9536 32.7472 21.3228C33.1406 21.6919 33.1406 22.2457 32.7472 22.6153L30.9108 24.3384C30.7141 24.523 30.4515 24.5843 30.2548 24.5843Z" fill="#AE8649"/>
<path d="M30.9091 28.2157C30.647 28.2157 30.3844 28.1543 30.1877 27.9697C29.7942 27.6005 29.7942 27.0468 30.1877 26.6772L33.5981 23.4771C33.9915 23.1079 34.5817 23.1079 34.9756 23.4771C35.369 23.8462 35.369 24.4 34.9756 24.7696L31.5651 27.9697C31.368 28.1539 31.1058 28.2157 30.9091 28.2157Z" fill="#AE8649"/>
<path d="M35.1064 29.1996C34.8442 29.1996 34.5816 29.1382 34.3849 28.9536C33.9915 28.5844 33.9915 28.0307 34.3849 27.6611L36.2213 25.938C36.6147 25.5688 37.2048 25.5688 37.5987 25.938C37.9922 26.3072 37.9922 26.8609 37.5987 27.2305L35.7624 28.9536C35.6311 29.0768 35.3685 29.1996 35.1064 29.1996Z" fill="#AE8649"/>
<path d="M3.956 39.1073C3.69387 39.1073 3.43127 39.0459 3.29998 38.8613C3.03784 38.6154 2.90655 38.2458 3.03784 37.9384L6.05491 28.8923C6.12033 28.7691 6.18621 28.6463 6.31705 28.5231L13.7281 21.3228C14.1215 20.9536 14.7116 20.9536 15.1056 21.3228C15.499 21.6919 15.499 22.2457 15.1056 22.6153L7.82534 29.6307L5.46434 36.7693L13.0062 34.3693L20.0892 27.5385C20.4826 27.1693 21.0728 27.1693 21.4667 27.5385C21.8601 27.9077 21.8601 28.4614 21.4667 28.831L14.2523 35.846C14.121 35.9692 13.9901 36.0306 13.8588 36.0919L4.28345 39.1074H3.95589L3.956 39.1073Z" fill="#AE8649"/>
<path d="M29.8611 20.4613C29.5989 20.4613 29.3364 20.3999 29.2051 20.2153C28.8116 19.8461 28.8116 19.2924 29.2051 18.9228L39.9607 8.58451L34.7799 3.84594L24.3522 13.8151C23.9588 14.1842 23.3687 14.1842 22.9748 13.8151C22.5813 13.4459 22.5813 12.8922 22.9748 12.5225L34.0585 1.87648C34.4519 1.50732 35.042 1.50732 35.4359 1.87648L41.9943 7.90715C42.191 8.09173 42.2564 8.33813 42.3223 8.58409C42.3223 8.83006 42.2569 9.07646 42.0601 9.26104L30.5826 20.2153C30.3859 20.3999 30.1237 20.4613 29.8611 20.4613Z" fill="#AE8649"/>
<path d="M37.7303 12.4614C37.4682 12.4614 37.2056 12.4 37.0089 12.2155L30.8439 6.43073C30.4505 6.06157 30.4505 5.50783 30.8439 5.1382C31.2373 4.76904 31.8275 4.76904 32.2214 5.1382L38.3863 10.9229C38.7798 11.2921 38.7798 11.8458 38.3863 12.2155C38.255 12.4 37.9929 12.4614 37.7303 12.4614Z" fill="#AE8649"/>
<path d="M11.104 36.2771C10.8419 36.2771 10.5793 36.2157 10.3826 36.0312L6.31656 32.2159C5.92313 31.8467 5.92313 31.293 6.31656 30.9234C6.70999 30.5542 7.30012 30.5542 7.69404 30.9234L11.7601 34.7386C12.1535 35.1078 12.1535 35.6615 11.7601 36.0312C11.6288 36.2153 11.3666 36.2771 11.104 36.2771Z" fill="#AE8649"/>
</svg>
