<svg width="25" height="24" viewBox="0 0 25 24" fill="none" xmlns="http://www.w3.org/2000/svg">
<path d="M12.8387 0C6.19883 0 0.796875 5.3832 0.796875 12C0.796875 17.1888 4.12463 21.606 8.76073 23.2764C8.71256 22.5468 8.62405 21.132 8.62405 20.6502C8.62405 19.4496 8.76193 19.089 8.76193 19.089L10.1269 13.4316C9.92517 12.8436 9.82823 12.1842 9.82823 11.5686C9.82823 10.434 10.5622 9.3 11.6345 9.3C12.4305 9.3 13.1397 9.9 13.1397 11.0718C13.1397 11.4192 13.0916 11.8272 12.9705 12.3042L12.5105 14.118C12.3727 14.637 12.2661 15.6354 12.7141 16.2216C12.9693 16.5546 13.4149 16.7556 14.0429 16.8C16.5247 16.8 17.6554 14.1564 17.6554 11.7C17.6554 6.7428 13.3312 6.6 12.8387 6.6C9.85051 6.6 7.41987 8.8206 7.41987 11.55C7.41987 12.711 7.78113 13.566 8.21222 14.181C8.29832 14.304 8.33264 14.4546 8.29712 14.6004L7.96055 15.9948C7.91359 16.1898 7.66914 16.2696 7.52403 16.131C6.30661 14.9652 5.6136 13.338 5.6136 11.55C5.6136 7.8282 8.85465 4.8 12.8387 4.8C16.9576 4.8 20.0638 7.7022 20.0638 11.55C20.0638 15.4374 17.4977 18.6 14.3439 18.6C13.1753 18.6 12.2601 18.2862 11.6092 17.6736L10.9891 20.1192C10.6766 21.2532 10.2955 22.2906 9.3014 23.4696C10.4207 23.8134 11.608 24 12.8387 24C19.4785 24 24.8805 18.6168 24.8805 12C24.8805 5.3832 19.4785 0 12.8387 0Z" fill="#F1F1F2"/>
</svg>
