<svg width="31" height="31" viewBox="0 0 31 31" fill="none" xmlns="http://www.w3.org/2000/svg">
<path d="M15.7548 0.541992C24.0399 0.541992 30.7557 7.25743 30.7557 15.542C30.7557 23.8266 24.0399 30.542 15.7548 30.542C7.46974 30.542 0.753906 23.8266 0.753906 15.542C0.753906 7.25743 7.46974 0.541992 15.7548 0.541992ZM20.9295 21.6561C21.2054 20.8096 22.498 12.3731 22.6578 10.7107C22.7061 10.2072 22.547 9.87264 22.2352 9.7233C21.8582 9.54199 21.2999 9.63264 20.6523 9.86612C19.764 10.1863 8.40763 15.0079 7.7515 15.287C7.12929 15.5511 6.54099 15.8394 6.54099 16.2568C6.54099 16.5503 6.71513 16.7153 7.19516 16.8868C7.69476 17.0648 8.95288 17.4463 9.69575 17.6511C10.4112 17.8487 11.2258 17.6772 11.6824 17.3935C12.1663 17.0929 17.7512 13.3559 18.1523 13.0285C18.5528 12.7011 18.8724 13.1205 18.545 13.4485C18.2176 13.7759 14.3839 17.4966 13.8784 18.0118C13.2647 18.6372 13.7003 19.2855 14.1119 19.545C14.5821 19.8411 17.9639 22.1094 18.4732 22.4733C18.9826 22.8372 19.4992 23.0022 19.972 23.0022C20.4449 23.0022 20.694 22.3794 20.9295 21.6561Z" fill="#AE8649"/>
</svg>
