<svg width="25" height="24" viewBox="0 0 25 24" fill="none" xmlns="http://www.w3.org/2000/svg">
<path d="M12.9578 0C6.31755 0 0.916016 5.38278 0.916016 12C0.916016 18.6172 6.31755 24 12.9578 24C19.5981 24 24.9996 18.6172 24.9996 12C24.9996 5.38278 19.5981 0 12.9578 0ZM18.841 9.6647C18.8463 9.78783 18.8494 9.91304 18.8494 10.0388C18.8494 13.8569 15.9316 18.2609 10.5971 18.2609C8.95942 18.2609 7.4343 17.7824 6.15159 16.9623C6.37829 16.9894 6.60813 17.0024 6.84321 17.0024C8.20236 17.0024 9.45314 16.5412 10.4448 15.7659C9.17565 15.743 8.1055 14.9056 7.73535 13.7588C7.91283 13.7927 8.09451 13.811 8.28194 13.811C8.54634 13.811 8.80288 13.776 9.04529 13.7092C7.71964 13.4426 6.72017 12.276 6.72017 10.8751C6.72017 10.8626 6.72017 10.8506 6.72017 10.8386C7.11127 11.0551 7.55786 11.1856 8.03377 11.2007C7.25472 10.6816 6.74373 9.79774 6.74373 8.79496C6.74373 8.26539 6.88614 7.76922 7.13587 7.34139C8.56676 9.08974 10.7039 10.2402 13.1138 10.3612C13.0641 10.1494 13.0379 9.92922 13.0379 9.70278C13.0379 8.10678 14.3364 6.81287 15.9384 6.81287C16.7725 6.81287 17.5259 7.16348 18.0547 7.72539C18.7149 7.596 19.3363 7.35548 19.8965 7.0247C19.6803 7.69878 19.2201 8.26539 18.6206 8.6233C19.2081 8.55235 19.7662 8.39791 20.2871 8.16783C19.8986 8.74748 19.407 9.25722 18.841 9.6647Z" fill="#F1F1F2"/>
</svg>
