<svg width="108" height="108" viewBox="0 0 108 108" fill="none" xmlns="http://www.w3.org/2000/svg">
<g filter="url(#filter0_d_90_2309)">
<path d="M104 50C104 22.3902 81.6098 0 54 0C26.3902 0 4 22.3902 4 50C4 77.6098 26.3902 100 54 100C81.6098 100 104 77.6098 104 50Z" fill="url(#paint0_linear_90_2309)"/>
<path d="M78.7298 47.4195L43.4819 25.7548C42.5146 25.1704 41.2449 25.1301 40.2574 25.6943C39.2497 26.2586 38.625 27.3267 38.625 28.4755V71.6033C38.625 72.752 39.2497 73.8201 40.2373 74.3844C40.7209 74.6464 41.2449 74.7875 41.789 74.7875C42.3735 74.7875 42.9378 74.6262 43.4416 74.3239L78.6895 52.8407C79.6367 52.2764 80.2211 51.2284 80.2211 50.1401C80.2614 49.0317 79.677 47.9837 78.7298 47.4195Z" fill="#0E0E0E"/>
</g>
<defs>
<filter id="filter0_d_90_2309" x="0" y="0" width="108" height="108" filterUnits="userSpaceOnUse" color-interpolation-filters="sRGB">
<feFlood flood-opacity="0" result="BackgroundImageFix"/>
<feColorMatrix in="SourceAlpha" type="matrix" values="0 0 0 0 0 0 0 0 0 0 0 0 0 0 0 0 0 0 127 0" result="hardAlpha"/>
<feOffset dy="4"/>
<feGaussianBlur stdDeviation="2"/>
<feComposite in2="hardAlpha" operator="out"/>
<feColorMatrix type="matrix" values="0 0 0 0 0 0 0 0 0 0 0 0 0 0 0 0 0 0 0.25 0"/>
<feBlend mode="normal" in2="BackgroundImageFix" result="effect1_dropShadow_90_2309"/>
<feBlend mode="normal" in="SourceGraphic" in2="effect1_dropShadow_90_2309" result="shape"/>
</filter>
<linearGradient id="paint0_linear_90_2309" x1="54" y1="0" x2="54" y2="100" gradientUnits="userSpaceOnUse">
<stop stop-color="#D0A96C"/>
<stop offset="1" stop-color="#775727"/>
</linearGradient>
</defs>
</svg>
