<svg width="9" height="16" viewBox="0 0 9 16" fill="none" xmlns="http://www.w3.org/2000/svg">
<path d="M8.72831 0.743709C8.72378 0.935337 8.64371 1.11741 8.50554 1.25027L1.75424 8.00157L8.50554 14.7529C8.57513 14.8206 8.63045 14.9015 8.66823 14.991C8.706 15.0804 8.72547 15.1765 8.72548 15.2736C8.72544 15.4181 8.6823 15.5594 8.60158 15.6793C8.52085 15.7991 8.40621 15.8922 8.27231 15.9466C8.13841 16.001 7.99133 16.0142 7.84988 15.9846C7.70843 15.9549 7.57903 15.8838 7.47823 15.7802L0.213274 8.51523C0.0770807 8.37898 0.000573158 8.19422 0.000573158 8.00157C0.000573158 7.80892 0.0770807 7.62416 0.213274 7.48792L7.47823 0.222959C7.57969 0.117451 7.71064 0.0450478 7.85395 0.015233C7.99725 -0.0145836 8.14622 -0.000419617 8.28134 0.0558662C8.41646 0.112153 8.53143 0.207939 8.61119 0.330676C8.69094 0.453412 8.73177 0.597376 8.72831 0.743709Z" fill="#0E0E0E"/>
</svg>
