<svg width="9" height="16" viewBox="0 0 9 16" fill="none" xmlns="http://www.w3.org/2000/svg">
<path d="M0.271687 0.743709C0.276217 0.935337 0.356289 1.11741 0.49446 1.25027L7.24576 8.00157L0.49446 14.7529C0.424866 14.8206 0.369547 14.9015 0.331771 14.991C0.293996 15.0804 0.27453 15.1765 0.274525 15.2736C0.274563 15.4181 0.317701 15.5594 0.398424 15.6793C0.479148 15.7991 0.593789 15.8922 0.727691 15.9466C0.861592 16.001 1.00867 16.0142 1.15012 15.9846C1.29157 15.9549 1.42097 15.8838 1.52177 15.7802L8.78673 8.51523C8.92292 8.37898 8.99943 8.19422 8.99943 8.00157C8.99943 7.80892 8.92292 7.62416 8.78673 7.48792L1.52177 0.222959C1.42031 0.117451 1.28936 0.0450478 1.14605 0.015233C1.00275 -0.0145836 0.853776 -0.000419617 0.718657 0.0558662C0.583539 0.112153 0.468571 0.207939 0.388815 0.330676C0.309059 0.453412 0.268233 0.597376 0.271687 0.743709Z" fill="#0E0E0E"/>
</svg>
