<svg width="100" height="100" viewBox="0 0 100 100" fill="none" xmlns="http://www.w3.org/2000/svg">
<path d="M88.8889 0H11.1111C4.97222 0 0 4.97222 0 11.1111V88.8889C0 95.0278 4.97222 100 11.1111 100H88.8889C95.0278 100 100 95.0278 100 88.8889V11.1111C100 4.97222 95.0278 0 88.8889 0ZM50 16.6667C59.4444 16.6667 66.6667 23.8889 66.6667 33.3333C66.6667 42.7778 59.4444 50 50 50C40.5556 50 33.3333 42.7778 33.3333 33.3333C33.3333 23.8889 40.5556 16.6667 50 16.6667ZM83.3333 83.3333H16.6667C16.6667 83.3333 16.6667 80.0833 16.6667 77.7778C16.6667 69.05 31.7889 61.1111 50 61.1111C68.2111 61.1111 83.3333 69.05 83.3333 77.7778C83.3333 80.0833 83.3333 83.3333 83.3333 83.3333Z" fill="#343434"/>
</svg>
